<mxfile host="app.diagrams.net" modified="2022-03-25T02:20:29.663Z" agent="5.0 (Macintosh; Intel Mac OS X 10_15_7) AppleWebKit/537.36 (KHTML, like Gecko) Chrome/99.0.4844.83 Safari/537.36" etag="N9kBouzwxnGGAnrLqfYc" version="17.2.1" type="github">
  <diagram id="cGD2OUfTDpStSXVI_blN" name="Page-1">
    <mxGraphModel dx="946" dy="557" grid="1" gridSize="10" guides="1" tooltips="1" connect="1" arrows="1" fold="1" page="1" pageScale="1" pageWidth="827" pageHeight="1169" math="0" shadow="0">
      <root>
        <mxCell id="0" />
        <mxCell id="1" parent="0" />
        <mxCell id="yTqzBvVl11F59VPy5yfE-1" value="在线表" style="rounded=0;whiteSpace=wrap;html=1;" vertex="1" parent="1">
          <mxGeometry x="260" y="190" width="80" height="40" as="geometry" />
        </mxCell>
        <mxCell id="yTqzBvVl11F59VPy5yfE-2" style="edgeStyle=none;rounded=0;orthogonalLoop=1;jettySize=auto;html=1;exitX=0.5;exitY=0;exitDx=0;exitDy=0;entryX=0.5;entryY=1;entryDx=0;entryDy=0;endArrow=none;endFill=0;" edge="1" parent="1" source="yTqzBvVl11F59VPy5yfE-3" target="yTqzBvVl11F59VPy5yfE-1">
          <mxGeometry relative="1" as="geometry" />
        </mxCell>
        <mxCell id="yTqzBvVl11F59VPy5yfE-3" value="名称" style="ellipse;whiteSpace=wrap;html=1;" vertex="1" parent="1">
          <mxGeometry x="130" y="270" width="60" height="30" as="geometry" />
        </mxCell>
        <mxCell id="yTqzBvVl11F59VPy5yfE-4" style="edgeStyle=none;rounded=0;orthogonalLoop=1;jettySize=auto;html=1;exitX=0.5;exitY=0;exitDx=0;exitDy=0;entryX=0.5;entryY=1;entryDx=0;entryDy=0;endArrow=none;endFill=0;" edge="1" parent="1" source="yTqzBvVl11F59VPy5yfE-5" target="yTqzBvVl11F59VPy5yfE-1">
          <mxGeometry relative="1" as="geometry" />
        </mxCell>
        <mxCell id="yTqzBvVl11F59VPy5yfE-5" value="类别" style="ellipse;whiteSpace=wrap;html=1;" vertex="1" parent="1">
          <mxGeometry x="200" y="270" width="60" height="30" as="geometry" />
        </mxCell>
        <mxCell id="yTqzBvVl11F59VPy5yfE-6" style="edgeStyle=none;rounded=0;orthogonalLoop=1;jettySize=auto;html=1;exitX=0.5;exitY=0;exitDx=0;exitDy=0;endArrow=none;endFill=0;" edge="1" parent="1" source="yTqzBvVl11F59VPy5yfE-7">
          <mxGeometry relative="1" as="geometry">
            <mxPoint x="300" y="230" as="targetPoint" />
          </mxGeometry>
        </mxCell>
        <mxCell id="yTqzBvVl11F59VPy5yfE-7" value="SignalRid" style="ellipse;whiteSpace=wrap;html=1;" vertex="1" parent="1">
          <mxGeometry x="270" y="270" width="60" height="30" as="geometry" />
        </mxCell>
        <mxCell id="yTqzBvVl11F59VPy5yfE-8" style="edgeStyle=none;rounded=0;orthogonalLoop=1;jettySize=auto;html=1;exitX=0.5;exitY=0;exitDx=0;exitDy=0;entryX=0.5;entryY=1;entryDx=0;entryDy=0;endArrow=none;endFill=0;" edge="1" parent="1" source="yTqzBvVl11F59VPy5yfE-9" target="yTqzBvVl11F59VPy5yfE-1">
          <mxGeometry relative="1" as="geometry" />
        </mxCell>
        <mxCell id="yTqzBvVl11F59VPy5yfE-9" value="教学记录id" style="ellipse;whiteSpace=wrap;html=1;" vertex="1" parent="1">
          <mxGeometry x="340" y="270" width="60" height="30" as="geometry" />
        </mxCell>
        <mxCell id="yTqzBvVl11F59VPy5yfE-10" style="edgeStyle=none;rounded=0;orthogonalLoop=1;jettySize=auto;html=1;exitX=0.5;exitY=0;exitDx=0;exitDy=0;endArrow=none;endFill=0;" edge="1" parent="1" source="yTqzBvVl11F59VPy5yfE-11">
          <mxGeometry relative="1" as="geometry">
            <mxPoint x="300" y="230" as="targetPoint" />
          </mxGeometry>
        </mxCell>
        <mxCell id="yTqzBvVl11F59VPy5yfE-11" value="班级" style="ellipse;whiteSpace=wrap;html=1;dashed=1;" vertex="1" parent="1">
          <mxGeometry x="410" y="270" width="60" height="30" as="geometry" />
        </mxCell>
        <mxCell id="yTqzBvVl11F59VPy5yfE-12" style="edgeStyle=none;rounded=0;orthogonalLoop=1;jettySize=auto;html=1;entryX=0.5;entryY=0;entryDx=0;entryDy=0;endArrow=none;endFill=0;" edge="1" parent="1" source="yTqzBvVl11F59VPy5yfE-14" target="yTqzBvVl11F59VPy5yfE-23">
          <mxGeometry relative="1" as="geometry" />
        </mxCell>
        <mxCell id="yTqzBvVl11F59VPy5yfE-13" value="1" style="edgeLabel;html=1;align=center;verticalAlign=middle;resizable=0;points=[];" vertex="1" connectable="0" parent="yTqzBvVl11F59VPy5yfE-12">
          <mxGeometry x="-0.2533" y="-1" relative="1" as="geometry">
            <mxPoint as="offset" />
          </mxGeometry>
        </mxCell>
        <mxCell id="yTqzBvVl11F59VPy5yfE-14" value="教师" style="rounded=0;whiteSpace=wrap;html=1;" vertex="1" parent="1">
          <mxGeometry x="15" width="80" height="40" as="geometry" />
        </mxCell>
        <mxCell id="yTqzBvVl11F59VPy5yfE-15" style="edgeStyle=none;rounded=0;orthogonalLoop=1;jettySize=auto;html=1;exitX=0.5;exitY=1;exitDx=0;exitDy=0;entryX=0.5;entryY=0;entryDx=0;entryDy=0;endArrow=none;endFill=0;" edge="1" parent="1" source="yTqzBvVl11F59VPy5yfE-17" target="yTqzBvVl11F59VPy5yfE-26">
          <mxGeometry relative="1" as="geometry" />
        </mxCell>
        <mxCell id="yTqzBvVl11F59VPy5yfE-16" value="1" style="edgeLabel;html=1;align=center;verticalAlign=middle;resizable=0;points=[];" vertex="1" connectable="0" parent="yTqzBvVl11F59VPy5yfE-15">
          <mxGeometry x="0.0667" y="-1" relative="1" as="geometry">
            <mxPoint as="offset" />
          </mxGeometry>
        </mxCell>
        <mxCell id="yTqzBvVl11F59VPy5yfE-17" value="学生" style="rounded=0;whiteSpace=wrap;html=1;" vertex="1" parent="1">
          <mxGeometry x="175" width="80" height="40" as="geometry" />
        </mxCell>
        <mxCell id="yTqzBvVl11F59VPy5yfE-18" style="edgeStyle=none;rounded=0;orthogonalLoop=1;jettySize=auto;html=1;exitX=0.5;exitY=1;exitDx=0;exitDy=0;endArrow=none;endFill=0;" edge="1" parent="1" source="yTqzBvVl11F59VPy5yfE-20" target="yTqzBvVl11F59VPy5yfE-29">
          <mxGeometry relative="1" as="geometry" />
        </mxCell>
        <mxCell id="yTqzBvVl11F59VPy5yfE-19" value="1" style="edgeLabel;html=1;align=center;verticalAlign=middle;resizable=0;points=[];" vertex="1" connectable="0" parent="yTqzBvVl11F59VPy5yfE-18">
          <mxGeometry x="0.0133" y="1" relative="1" as="geometry">
            <mxPoint as="offset" />
          </mxGeometry>
        </mxCell>
        <mxCell id="yTqzBvVl11F59VPy5yfE-43" style="edgeStyle=none;rounded=0;orthogonalLoop=1;jettySize=auto;html=1;entryX=0;entryY=0.5;entryDx=0;entryDy=0;endArrow=block;endFill=0;dashed=1;startArrow=block;startFill=0;" edge="1" parent="1" source="yTqzBvVl11F59VPy5yfE-20" target="yTqzBvVl11F59VPy5yfE-30">
          <mxGeometry relative="1" as="geometry" />
        </mxCell>
        <mxCell id="yTqzBvVl11F59VPy5yfE-44" value="一一对应" style="edgeLabel;html=1;align=center;verticalAlign=middle;resizable=0;points=[];" vertex="1" connectable="0" parent="yTqzBvVl11F59VPy5yfE-43">
          <mxGeometry x="-0.05" y="-1" relative="1" as="geometry">
            <mxPoint as="offset" />
          </mxGeometry>
        </mxCell>
        <mxCell id="yTqzBvVl11F59VPy5yfE-20" value="教学记录" style="rounded=0;whiteSpace=wrap;html=1;" vertex="1" parent="1">
          <mxGeometry x="345" width="80" height="40" as="geometry" />
        </mxCell>
        <mxCell id="yTqzBvVl11F59VPy5yfE-35" style="rounded=0;orthogonalLoop=1;jettySize=auto;html=1;entryX=0.5;entryY=0;entryDx=0;entryDy=0;endArrow=none;endFill=0;exitX=0.582;exitY=1.02;exitDx=0;exitDy=0;exitPerimeter=0;" edge="1" parent="1" source="yTqzBvVl11F59VPy5yfE-23" target="yTqzBvVl11F59VPy5yfE-1">
          <mxGeometry relative="1" as="geometry" />
        </mxCell>
        <mxCell id="yTqzBvVl11F59VPy5yfE-39" value="1" style="edgeLabel;html=1;align=center;verticalAlign=middle;resizable=0;points=[];" vertex="1" connectable="0" parent="yTqzBvVl11F59VPy5yfE-35">
          <mxGeometry x="-0.1439" relative="1" as="geometry">
            <mxPoint as="offset" />
          </mxGeometry>
        </mxCell>
        <mxCell id="yTqzBvVl11F59VPy5yfE-23" value="教师在线" style="rhombus;whiteSpace=wrap;html=1;" vertex="1" parent="1">
          <mxGeometry y="94.99999999999999" width="110" height="50" as="geometry" />
        </mxCell>
        <mxCell id="yTqzBvVl11F59VPy5yfE-36" style="edgeStyle=none;rounded=0;orthogonalLoop=1;jettySize=auto;html=1;exitX=0.5;exitY=1;exitDx=0;exitDy=0;endArrow=none;endFill=0;" edge="1" parent="1" source="yTqzBvVl11F59VPy5yfE-26">
          <mxGeometry relative="1" as="geometry">
            <mxPoint x="300" y="190" as="targetPoint" />
          </mxGeometry>
        </mxCell>
        <mxCell id="yTqzBvVl11F59VPy5yfE-40" value="1" style="edgeLabel;html=1;align=center;verticalAlign=middle;resizable=0;points=[];" vertex="1" connectable="0" parent="yTqzBvVl11F59VPy5yfE-36">
          <mxGeometry x="-0.4876" y="-2" relative="1" as="geometry">
            <mxPoint as="offset" />
          </mxGeometry>
        </mxCell>
        <mxCell id="yTqzBvVl11F59VPy5yfE-26" value="学生在线" style="rhombus;whiteSpace=wrap;html=1;" vertex="1" parent="1">
          <mxGeometry x="160" y="95" width="110" height="50" as="geometry" />
        </mxCell>
        <mxCell id="yTqzBvVl11F59VPy5yfE-37" style="edgeStyle=none;rounded=0;orthogonalLoop=1;jettySize=auto;html=1;exitX=0.5;exitY=1;exitDx=0;exitDy=0;endArrow=none;endFill=0;" edge="1" parent="1" source="yTqzBvVl11F59VPy5yfE-29">
          <mxGeometry relative="1" as="geometry">
            <mxPoint x="300" y="190" as="targetPoint" />
          </mxGeometry>
        </mxCell>
        <mxCell id="yTqzBvVl11F59VPy5yfE-41" value="n" style="edgeLabel;html=1;align=center;verticalAlign=middle;resizable=0;points=[];" vertex="1" connectable="0" parent="yTqzBvVl11F59VPy5yfE-37">
          <mxGeometry x="-0.2281" relative="1" as="geometry">
            <mxPoint as="offset" />
          </mxGeometry>
        </mxCell>
        <mxCell id="yTqzBvVl11F59VPy5yfE-29" value="一个教学多个在线" style="rhombus;whiteSpace=wrap;html=1;" vertex="1" parent="1">
          <mxGeometry x="330" y="94.99999999999999" width="110" height="50" as="geometry" />
        </mxCell>
        <mxCell id="yTqzBvVl11F59VPy5yfE-32" style="edgeStyle=orthogonalEdgeStyle;rounded=0;orthogonalLoop=1;jettySize=auto;html=1;entryX=0.5;entryY=0;entryDx=0;entryDy=0;endArrow=none;endFill=0;" edge="1" parent="1" source="yTqzBvVl11F59VPy5yfE-30" target="yTqzBvVl11F59VPy5yfE-31">
          <mxGeometry relative="1" as="geometry" />
        </mxCell>
        <mxCell id="yTqzBvVl11F59VPy5yfE-34" value="1" style="edgeLabel;html=1;align=center;verticalAlign=middle;resizable=0;points=[];" vertex="1" connectable="0" parent="yTqzBvVl11F59VPy5yfE-32">
          <mxGeometry x="-0.0545" y="-4" relative="1" as="geometry">
            <mxPoint as="offset" />
          </mxGeometry>
        </mxCell>
        <mxCell id="yTqzBvVl11F59VPy5yfE-30" value="班级" style="rounded=0;whiteSpace=wrap;html=1;dashed=1;" vertex="1" parent="1">
          <mxGeometry x="505" width="80" height="40" as="geometry" />
        </mxCell>
        <mxCell id="yTqzBvVl11F59VPy5yfE-38" style="edgeStyle=none;rounded=0;orthogonalLoop=1;jettySize=auto;html=1;exitX=0.5;exitY=1;exitDx=0;exitDy=0;entryX=0.5;entryY=0;entryDx=0;entryDy=0;endArrow=none;endFill=0;" edge="1" parent="1" source="yTqzBvVl11F59VPy5yfE-31" target="yTqzBvVl11F59VPy5yfE-1">
          <mxGeometry relative="1" as="geometry" />
        </mxCell>
        <mxCell id="yTqzBvVl11F59VPy5yfE-42" value="n" style="edgeLabel;html=1;align=center;verticalAlign=middle;resizable=0;points=[];" vertex="1" connectable="0" parent="yTqzBvVl11F59VPy5yfE-38">
          <mxGeometry x="-0.1533" y="4" relative="1" as="geometry">
            <mxPoint as="offset" />
          </mxGeometry>
        </mxCell>
        <mxCell id="yTqzBvVl11F59VPy5yfE-31" value="一个班级多个在线" style="rhombus;whiteSpace=wrap;html=1;" vertex="1" parent="1">
          <mxGeometry x="490" y="94.99999999999999" width="110" height="50" as="geometry" />
        </mxCell>
      </root>
    </mxGraphModel>
  </diagram>
</mxfile>
